# xmcd CD database file
#
# Track frame offsets:
#	150
#	30590
#	64298
#	92352
#	112091
#	134058
#	160237
#	174348
#	201101
#
# Disc length: 3268 seconds
#
# Revision: 0
# Processed by: cddbd v1.4PL0 Copyright (c) Steve Scherf et al.
# Submitted via: CDex 1.50beta10
#
DISCID=790cc209
DTITLE=Dean Evenson and Li Xiangting - Tao of healing 2000
DYEAR=2000
DGENRE=New Age
TTITLE0=Gentle season
TTITLE1=Clouds on mountain
TTITLE2=Pond reflecting stars
TTITLE3=Silver bamboo
TTITLE4=Healing breeze
TTITLE5=Morning mist
TTITLE6=Tao and then
TTITLE7=Deeper forever
TTITLE8=Tree over river
EXTD=YEAR: 2000
EXTT0=
EXTT1=
EXTT2=
EXTT3=
EXTT4=
EXTT5=
EXTT6=
EXTT7=
EXTT8=
PLAYORDER=
